<svg xmlns="http://www.w3.org/2000/svg" width="77.926" height="77.926" viewBox="0 0 77.926 77.926">
  <g id="boost-white-v3" transform="translate(-0.896 -0.008)">
    <path id="Path_231" data-name="Path 231" d="M288.364,129.2a6.527,6.527,0,1,1,4.607-1.911A6.475,6.475,0,0,1,288.364,129.2Zm0-10.439a3.914,3.914,0,0,0-2.761,6.682,4.028,4.028,0,0,0,5.538,0,3.914,3.914,0,0,0-2.777-6.682Z" transform="translate(-235.042 -97.175)" fill="#fff"/>
    <path id="Path_232" data-name="Path 232" d="M242.044,201.728l-3.692,3.692a1.317,1.317,0,0,0-.359,1.274,1.282,1.282,0,0,0,.931.931,1.317,1.317,0,0,0,1.274-.359l3.692-3.692a1.306,1.306,0,0,0-1.846-1.846Z" transform="translate(-198.329 -168.46)" fill="#fff"/>
    <path id="Path_233" data-name="Path 233" d="M211.095,246.828l-.915.915a1.31,1.31,0,0,0,.555,2.222,1.289,1.289,0,0,0,1.274-.376l.915-.915a1.307,1.307,0,0,0-.016-1.83,1.287,1.287,0,0,0-1.813-.016Z" transform="translate(-174.747 -206.192)" fill="#fff"/>
    <path id="Path_234" data-name="Path 234" d="M137.344,2.555l-.082-1.127A1.313,1.313,0,0,0,136.053.219L134.926.137A42.976,42.976,0,0,0,97.874,16.36l-5.408,6.829a16.866,16.866,0,0,0-21.075,2.3,1.31,1.31,0,0,0-.392.931,1.246,1.246,0,0,0,.392.931L81.325,37.3l-.147.18a3.921,3.921,0,0,0,.31,5.2l.049.049-2.761,2.761a6.527,6.527,0,0,0,0,9.23l4,4a6.527,6.527,0,0,0,9.23,0L94.77,55.96l.049.049a3.921,3.921,0,0,0,5.2.31l.18-.147,9.949,9.933a1.285,1.285,0,0,0,.915.376,1.323,1.323,0,0,0,.931-.376,16.889,16.889,0,0,0,2.3-21.075l6.829-5.391A43.073,43.073,0,0,0,137.344,2.555ZM74.2,26.472a14.289,14.289,0,0,1,16.647-1.209l-7.891,9.982ZM90.163,56.859a3.934,3.934,0,0,1-5.538,0l-4-4a3.934,3.934,0,0,1,0-5.538l2.761-2.761L92.924,54.1ZM114.342,54.1a14.322,14.322,0,0,1-3.333,9.181l-8.773-8.757,9.982-7.891A13.9,13.9,0,0,1,114.342,54.1ZM119.5,37.565,98.4,54.245a1.319,1.319,0,0,1-1.732-.1L83.334,40.832a1.3,1.3,0,0,1-.1-1.732l16.68-21.124a40.316,40.316,0,0,1,11.289-9.8l18.118,18.1A40.87,40.87,0,0,1,119.5,37.565Zm11.109-13.69L113.606,6.868a40.36,40.36,0,0,1,18.02-4.248c1.029,0,2.058.033,3.1.114l.016.016A40.368,40.368,0,0,1,130.613,23.875Z" transform="translate(-58.651 0)" fill="#fff"/>
    <path id="Path_235" data-name="Path 235" d="M2.23,365.017a1.33,1.33,0,0,1-1.013-.474,1.3,1.3,0,0,1-.261-1.078c.294-1.47,3.039-14.409,6.273-17.644a9.126,9.126,0,0,1,12.906,12.906C16.9,361.962,3.961,364.69,2.491,365,2.409,365,2.311,365.017,2.23,365.017Zm11.452-19.277a6.475,6.475,0,0,0-4.607,1.911c-1.781,1.781-3.921,9.067-5.13,14.36,5.293-1.209,12.563-3.349,14.36-5.13a6.524,6.524,0,0,0-4.623-11.142Z" transform="translate(-0.026 -287.084)" fill="#fff"/>
    <path id="Path_236" data-name="Path 236" d="M174.2,399.188a1.3,1.3,0,0,1-.931-2.222l5.538-5.538a1.306,1.306,0,0,1,1.846,1.846l-5.538,5.538A1.357,1.357,0,0,1,174.2,399.188Z" transform="translate(-143.901 -327.169)" fill="#fff"/>
    <path id="Path_237" data-name="Path 237" d="M238,407.188a1.3,1.3,0,0,1-.931-2.222l5.538-5.538a1.306,1.306,0,0,1,1.846,1.846l-5.538,5.538A1.3,1.3,0,0,1,238,407.188Z" transform="translate(-197.278 -333.862)" fill="#fff"/>
    <path id="Path_238" data-name="Path 238" d="M145.9,450.889a1.3,1.3,0,0,1-.931-2.222l.915-.915a1.318,1.318,0,0,1,1.274-.359,1.283,1.283,0,0,1,.931.931,1.318,1.318,0,0,1-.359,1.274l-.915.915A1.258,1.258,0,0,1,145.9,450.889Z" transform="translate(-120.224 -374.263)" fill="#fff"/>
    <path id="Path_239" data-name="Path 239" d="M30.4,263.388a1.3,1.3,0,0,1-.931-2.222l5.538-5.538a1.306,1.306,0,0,1,1.846,1.846l-5.538,5.538A1.258,1.258,0,0,1,30.4,263.388Z" transform="translate(-23.593 -213.554)" fill="#fff"/>
    <path id="Path_240" data-name="Path 240" d="M30.4,199.588a1.3,1.3,0,0,1-.931-2.222l5.538-5.538a1.306,1.306,0,0,1,1.846,1.846l-5.538,5.538A1.326,1.326,0,0,1,30.4,199.588Z" transform="translate(-23.593 -160.177)" fill="#fff"/>
    <path id="Path_241" data-name="Path 241" d="M2.2,315.189a1.3,1.3,0,0,1-.931-2.222l.915-.915a1.318,1.318,0,0,1,1.274-.359,1.283,1.283,0,0,1,.931.931,1.317,1.317,0,0,1-.359,1.274l-.915.915A1.357,1.357,0,0,1,2.2,315.189Z" transform="translate(0 -260.732)" fill="#fff"/>
  </g>
</svg>
