<svg xmlns="http://www.w3.org/2000/svg" width="101.589" height="86.097" viewBox="0 0 101.589 86.097">
  <g id="Group_103" data-name="Group 103" transform="translate(-694.646 -1756)">
    <path id="Path_242" data-name="Path 242" d="M245.756,10.886a1.26,1.26,0,0,0,1.256-1.256V1.256a1.256,1.256,0,0,0-2.512,0V9.63A1.26,1.26,0,0,0,245.756,10.886Z" transform="translate(498.428 1756)" fill="#fff"/>
    <path id="Path_245" data-name="Path 245" d="M357.947,50.436a1.277,1.277,0,0,0-1.779,0l-6.532,6.532a1.277,1.277,0,0,0,0,1.779,1.257,1.257,0,0,0,1.78,0l6.532-6.532A1.277,1.277,0,0,0,357.947,50.436Z" transform="translate(415.587 1716.408)" fill="#fff"/>
    <path id="Path_246" data-name="Path 246" d="M106.847,59.1a1.251,1.251,0,0,0,.879-2.135l-6.532-6.532a1.243,1.243,0,1,0-1.759,1.759l6.532,6.553A1.234,1.234,0,0,0,106.847,59.1Z" transform="translate(613.408 1716.408)" fill="#fff"/>
    <g id="Icon_ionic-ios-people" data-name="Icon ionic-ios-people" transform="translate(693.931 1768.776)">
      <path id="Path_256" data-name="Path 256" d="M59.265,57.043c-2.459-.878-6.477-.922-8.256-1.6-1.23-.483-3.184-1.01-3.821-1.779s-.637-6.258-.637-6.258a10.109,10.109,0,0,0,2.174-3.074,34.164,34.164,0,0,0,1.054-6.038s1.449.615,2.02-2.284c.483-2.5,1.405-3.821,1.164-5.665-.263-1.844-1.274-1.405-1.274-1.405s1.274-1.866,1.274-8.212c0-6.543-4.94-12.977-14.185-12.977-9.222,0-14.207,6.456-14.207,12.977,0,6.346,1.252,8.212,1.252,8.212s-1.032-.439-1.274,1.405c-.263,1.844.659,3.162,1.164,5.665.571,2.92,2.02,2.284,2.02,2.284a34.495,34.495,0,0,0,1.054,6.038A10.109,10.109,0,0,0,30.961,47.4s0,5.489-.637,6.258-2.591,1.3-3.821,1.757c-1.757.681-5.775.769-8.256,1.647A15.5,15.5,0,0,0,8.191,71.821H69.3A15.466,15.466,0,0,0,59.265,57.043Z" transform="translate(12.687 0)" fill="none" stroke="#fff" stroke-linecap="square" stroke-linejoin="round" stroke-width="3"/>
      <path id="Path_257" data-name="Path 257" d="M26.039,39.006s5.248-.176,7.334-2.042c-3.4-5.16-1.559-11.176-2.262-16.8-.7-5.6-3.886-8.959-10.254-8.959h-.088c-6.148,0-9.464,3.338-10.166,8.959-.7,5.6,1.252,12.3-2.24,16.8,2.086,1.888,7.356,1.822,7.356,1.822h0s.22,3.162-.22,3.689a5.544,5.544,0,0,1-2.635,1.208,50.947,50.947,0,0,0-5.687,1.581c-1.713.593-4.962,3.777-4.962,8.168H19.847c.483-1.757,3.8-4.9,7.026-6.543A14.745,14.745,0,0,1,32.3,45.747s.834-1.317-1.91-1.822c0,0-3.777-.944-4.216-1.471C25.753,41.97,26.039,39.006,26.039,39.006Z" transform="translate(0 7.344)" fill="none" stroke="#fff" stroke-linecap="square" stroke-linejoin="round" stroke-width="3"/>
      <path id="Path_258" data-name="Path 258" d="M31.142,39.006s-5.248-.176-7.334-2.042c3.4-5.16,1.559-11.176,2.262-16.8.7-5.6,3.886-8.959,10.254-8.959h.088c6.148,0,9.464,3.338,10.166,8.959.7,5.6-1.252,12.3,2.24,16.8-2.086,1.888-7.356,1.822-7.356,1.822h0s-.22,3.162.22,3.689a5.545,5.545,0,0,0,2.635,1.208A50.947,50.947,0,0,1,50,45.264c1.713.593,4.962,3.777,4.962,8.168H37.334c-.483-1.757-3.8-4.9-7.026-6.543a14.745,14.745,0,0,0-5.424-1.142s-.834-1.317,1.91-1.822c0,0,3.777-.944,4.216-1.471C31.427,41.97,31.142,39.006,31.142,39.006Z" transform="translate(45.839 7.344)" fill="none" stroke="#fff" stroke-linecap="square" stroke-linejoin="round" stroke-width="3"/>
    </g>
  </g>
</svg>
