<svg id="Component_11_10" data-name="Component 11 – 10" xmlns="http://www.w3.org/2000/svg" width="17" height="17" viewBox="0 0 17 17">
  <g id="Group_3" data-name="Group 3" transform="translate(-4529 31)">
    <g id="Rectangle_9" data-name="Rectangle 9" transform="translate(4529 -31)" fill="none" stroke="#153a59" stroke-width="1.2">
      <rect width="5" height="5" rx="1.5" stroke="none"/>
      <rect x="0.6" y="0.6" width="3.8" height="3.8" rx="0.9" fill="none"/>
    </g>
    <g id="Rectangle_15" data-name="Rectangle 15" transform="translate(4529 -19)" fill="none" stroke="#153a59" stroke-width="1.2">
      <rect width="5" height="5" rx="1.5" stroke="none"/>
      <rect x="0.6" y="0.6" width="3.8" height="3.8" rx="0.9" fill="none"/>
    </g>
    <g id="Rectangle_16" data-name="Rectangle 16" transform="translate(4529 -25)" fill="none" stroke="#153a59" stroke-width="1.2">
      <rect width="5" height="5" rx="1.5" stroke="none"/>
      <rect x="0.6" y="0.6" width="3.8" height="3.8" rx="0.9" fill="none"/>
    </g>
    <g id="Rectangle_17" data-name="Rectangle 17" transform="translate(4535 -31)" fill="none" stroke="#153a59" stroke-width="1.2">
      <rect width="5" height="5" rx="1.5" stroke="none"/>
      <rect x="0.6" y="0.6" width="3.8" height="3.8" rx="0.9" fill="none"/>
    </g>
    <g id="Rectangle_18" data-name="Rectangle 18" transform="translate(4535 -19)" fill="none" stroke="#153a59" stroke-width="1.2">
      <rect width="5" height="5" rx="1.5" stroke="none"/>
      <rect x="0.6" y="0.6" width="3.8" height="3.8" rx="0.9" fill="none"/>
    </g>
    <g id="Rectangle_19" data-name="Rectangle 19" transform="translate(4535 -25)" fill="none" stroke="#153a59" stroke-width="1.2">
      <rect width="5" height="5" rx="1.5" stroke="none"/>
      <rect x="0.6" y="0.6" width="3.8" height="3.8" rx="0.9" fill="none"/>
    </g>
    <g id="Rectangle_20" data-name="Rectangle 20" transform="translate(4541 -31)" fill="none" stroke="#153a59" stroke-width="1.2">
      <rect width="5" height="5" rx="1.5" stroke="none"/>
      <rect x="0.6" y="0.6" width="3.8" height="3.8" rx="0.9" fill="none"/>
    </g>
    <g id="Rectangle_21" data-name="Rectangle 21" transform="translate(4541 -19)" fill="none" stroke="#153a59" stroke-width="1.2">
      <rect width="5" height="5" rx="1.5" stroke="none"/>
      <rect x="0.6" y="0.6" width="3.8" height="3.8" rx="0.9" fill="none"/>
    </g>
    <g id="Rectangle_22" data-name="Rectangle 22" transform="translate(4541 -25)" fill="none" stroke="#153a59" stroke-width="1.2">
      <rect width="5" height="5" rx="1.5" stroke="none"/>
      <rect x="0.6" y="0.6" width="3.8" height="3.8" rx="0.9" fill="none"/>
    </g>
  </g>
</svg>
