<svg xmlns="http://www.w3.org/2000/svg" width="78.5" height="78.5" viewBox="0 0 78.5 78.5">
  <g id="Icon_awesome-coins" data-name="Icon awesome-coins" fill="none">
    <path d="M0,62.141v6.547C0,74.1,13.186,78.5,29.438,78.5s29.438-4.4,29.438-9.812V62.141c-6.332,4.462-17.908,6.547-29.437,6.547S6.332,66.6,0,62.141ZM49.063,19.625c16.252,0,29.438-4.4,29.438-9.812S65.314,0,49.063,0,19.625,4.4,19.625,9.813,32.811,19.625,49.063,19.625ZM0,46.057v7.911c0,5.412,13.186,9.813,29.438,9.813s29.438-4.4,29.438-9.812V46.057c-6.332,5.213-17.923,7.911-29.437,7.911S6.332,51.27,0,46.057Zm63.781,1.687c8.785-1.7,14.719-4.86,14.719-8.494V32.7c-3.557,2.514-8.785,4.232-14.719,5.29ZM29.438,24.531C13.186,24.531,0,30.02,0,36.8S13.186,49.063,29.438,49.063,58.875,43.574,58.875,36.8,45.689,24.531,29.438,24.531Zm33.623,8.632c9.2-1.656,15.439-4.906,15.439-8.632V17.984c-5.443,3.848-14.8,5.918-24.639,6.409C58.384,26.586,61.711,29.529,63.061,33.163Z" stroke="none"/>
    <path d="M 29.4375 75.5 C 36.98192596435547 75.5 44.03651428222656 74.53308868408203 49.30173873901367 72.77738952636719 C 54.7594108581543 70.95751190185547 55.875 69.08840942382812 55.875 68.6875 L 55.875 67.20606994628906 C 53.25701141357422 68.34918212890625 50.19717025756836 69.29175567626953 46.72320175170898 70.02291107177734 C 41.5490608215332 71.11188507080078 35.57176208496094 71.6875 29.4375 71.6875 C 23.30323791503906 71.6875 17.32595062255859 71.11188507080078 12.15180015563965 70.02291107177734 C 8.677838325500488 69.29175567626953 5.617990016937256 68.34918212890625 3 67.20606231689453 L 3 68.6875 C 3 69.08840942382812 4.115587711334229 70.95751190185547 9.573262214660645 72.77738952636719 C 14.83848762512207 74.53308868408203 21.89307594299316 75.5 29.4375 75.5 M 29.4375 60.78125 C 36.98192596435547 60.78125 44.03651428222656 59.81433868408203 49.30173873901367 58.05863571166992 C 54.7594108581543 56.23876190185547 55.875 54.36966323852539 55.875 53.96875 L 55.875 51.54159927368164 C 55.4194450378418 51.77485656738281 54.95124816894531 52.00141525268555 54.47047424316406 52.22118759155273 C 52.19528579711914 53.26124954223633 49.63161087036133 54.15323638916016 46.85066223144531 54.87237548828125 C 41.54716110229492 56.24383926391602 35.52578735351562 56.96875 29.4375 56.96875 C 23.34921264648438 56.96875 17.32783699035645 56.24383926391602 12.02433776855469 54.87237548828125 C 9.243399620056152 54.15323638916016 6.679725170135498 53.26124954223633 4.404524803161621 52.22118759155273 C 3.923756122589111 52.00141525268555 3.455553293228149 51.77485275268555 3 51.54159545898438 L 3 53.96875 C 3 54.36966323852539 4.115587711334229 56.23876190185547 9.573262214660645 58.05863571166992 C 14.83848762512207 59.81433868408203 21.89307594299316 60.78125 29.4375 60.78125 M 29.4375 46.0625 C 33.23632431030273 46.0625 36.91551208496094 45.75363922119141 40.37284851074219 45.14448928833008 C 43.66146087646484 44.5650634765625 46.59674835205078 43.7431640625 49.09716415405273 42.70162582397461 C 53.27788925170898 40.96016311645508 55.875 38.69758605957031 55.875 36.796875 C 55.875 34.89616394042969 53.27788925170898 32.63358688354492 49.09716415405273 30.89212417602539 C 46.59674835205078 29.85058784484863 43.66146087646484 29.02868843078613 40.37284851074219 28.44926261901855 C 36.91551208496094 27.84011268615723 33.23632431030273 27.53125 29.4375 27.53125 C 25.63867568969727 27.53125 21.95948791503906 27.84011268615723 18.50214958190918 28.44926261901855 C 15.21353721618652 29.02868843078613 12.27824974060059 29.85058784484863 9.777837753295898 30.89212417602539 C 5.597112655639648 32.63358688354492 3 34.89616394042969 3 36.796875 C 3 38.69758605957031 5.597112655639648 40.96016311645508 9.777837753295898 42.70162582397461 C 12.27824974060059 43.7431640625 15.21353721618652 44.5650634765625 18.50214958190918 45.14448928833008 C 21.95948791503906 45.75363922119141 25.63867568969727 46.0625 29.4375 46.0625 M 66.78125 43.97945404052734 C 69.27349853515625 43.30766677856445 71.37346649169922 42.5042724609375 72.96091461181641 41.60861206054688 C 75.04385375976562 40.43337631225586 75.5 39.50756072998047 75.5 39.25 L 75.5 37.76037216186523 C 73.00234222412109 38.84252548217773 70.0889892578125 39.74486541748047 66.78125 40.45972061157227 L 66.78125 43.97945404052734 M 64.74202728271484 29.76746940612793 C 68.0318603515625 29.03776741027832 70.78501892089844 28.09053230285645 72.78813934326172 26.99263763427734 C 75.01280975341797 25.77331161499023 75.5 24.80245018005371 75.5 24.53125 L 75.5 23.0547924041748 C 71.33109283447266 24.87592697143555 66.56484222412109 25.95297813415527 62.25725173950195 26.58842849731445 C 63.24574279785156 27.58939743041992 64.07594299316406 28.65193939208984 64.74202728271484 29.76746940612793 M 49.0625 16.625 C 56.60692596435547 16.625 63.66151428222656 15.65808773040771 68.92673492431641 13.90238761901855 C 74.38441467285156 12.08251285552979 75.5 10.21341228485107 75.5 9.8125 C 75.5 9.411587715148926 74.38441467285156 7.542487621307373 68.92673492431641 5.722612380981445 C 63.66151428222656 3.966912508010864 56.60692596435547 3 49.0625 3 C 41.51807403564453 3 34.46348571777344 3.966912508010864 29.19826316833496 5.722612380981445 C 23.74058723449707 7.542487621307373 22.625 9.411587715148926 22.625 9.8125 C 22.625 10.21341228485107 23.74058723449707 12.08251285552979 29.19826316833496 13.90238761901855 C 34.46348571777344 15.65808773040771 41.51807403564453 16.625 49.0625 16.625 M 29.4375 78.5 C 13.18554973602295 78.5 0 74.09971618652344 0 68.6875 L 0 62.14072418212891 C 6.332137584686279 66.60234832763672 17.90781211853027 68.6875 29.4375 68.6875 C 40.96718597412109 68.6875 52.54287338256836 66.60234832763672 58.875 62.14072418212891 L 58.875 68.6875 C 58.875 74.09971618652344 45.68944931030273 78.5 29.4375 78.5 Z M 29.4375 63.78125 C 13.18554973602295 63.78125 0 59.38096237182617 0 53.96875 L 0 46.05742645263672 C 6.332137584686279 51.27031326293945 17.92314910888672 53.96875 29.4375 53.96875 C 40.95185089111328 53.96875 52.54287338256836 51.27031326293945 58.875 46.05742645263672 L 58.875 53.96875 C 58.875 59.38096237182617 45.68944931030273 63.78125 29.4375 63.78125 Z M 29.4375 49.0625 C 13.18554973602295 49.0625 0 43.57363891601562 0 36.796875 C 0 30.02011299133301 13.18554973602295 24.53125 29.4375 24.53125 C 45.68944931030273 24.53125 58.875 30.02011299133301 58.875 36.796875 C 58.875 43.57363891601562 45.68944931030273 49.0625 29.4375 49.0625 Z M 63.78125 47.74394989013672 L 63.78125 37.99277496337891 C 69.71475219726562 36.93486404418945 74.94297790527344 35.21767425537109 78.5 32.70322418212891 L 78.5 39.25 C 78.5 42.88370132446289 72.56651306152344 46.04209899902344 63.78125 47.74394989013672 Z M 63.06064987182617 33.16318893432617 C 61.71142578125 29.52948760986328 58.38437652587891 26.58573722839355 53.86142349243164 24.39326286315918 C 63.70458602905273 23.90263748168945 73.05712127685547 21.83281326293945 78.5 17.98447418212891 L 78.5 24.53125 C 78.5 28.25693702697754 72.25986480712891 31.50732421875 63.06064987182617 33.16318893432617 Z M 49.0625 19.625 C 32.81055068969727 19.625 19.625 15.22471237182617 19.625 9.8125 C 19.625 4.400287628173828 32.81055068969727 0 49.0625 0 C 65.314453125 0 78.5 4.400287628173828 78.5 9.8125 C 78.5 15.22471237182617 65.314453125 19.625 49.0625 19.625 Z" stroke="none" fill="#fff"/>
  </g>
</svg>
